<svg width="128" height="100" viewBox="0 0 128 100" fill="none" xmlns="http://www.w3.org/2000/svg">
<path d="M125.875 74.1983C122.553 68.3045 116.497 66.1299 110.147 68.5419C108.674 69.1049 107.385 69.876 106.256 70.9539C105.128 72.0292 104.159 73.4112 103.324 75.1802L103.898 75.8579C105.026 75.0041 106.003 74.1183 107.113 73.4539C109.808 71.8504 112.969 72.2479 115.128 74.5212C116.051 75.4924 116.862 76.6583 117.441 77.8697C119.496 82.176 119.901 86.7519 119.272 91.4317C119.05 93.078 118.525 94.6442 117.396 95.9329C116.665 96.7653 115.742 97.1629 114.642 96.9574C113.567 96.76 113.042 95.9515 112.743 94.983C112.612 94.5721 112.58 94.1345 112.481 93.7103C112.185 92.4803 112.03 91.1916 111.55 90.0336C110.763 88.1393 108.802 87.3548 106.713 87.8831C105.026 88.31 103.981 89.7935 104.01 91.7599C104.047 93.8357 104.973 95.4606 106.614 96.6826C108.588 98.1554 110.822 98.8811 113.284 99.0012C116.926 99.1773 120.163 98.2301 122.85 95.6874C128.535 90.2925 129.466 80.5912 125.87 74.201L125.875 74.1983Z" fill="white"/>
<path d="M28.4055 68.0957L17.2074 86.9753L5.81722 68.0957H-0.00195312V98.4989H6.59898V80.6439L15.5052 95.2865H18.6749L27.6264 80.2517L27.6665 98.4989H34.2674L34.182 68.0957H28.4055Z" fill="white"/>
<path d="M51.0338 68.0957L37.4824 98.4989H44.6917L47.3998 91.9834H61.4928L64.193 98.4989H71.5757L57.9816 68.0957H51.0311H51.0338ZM49.6224 86.6418L54.4623 75.0061L59.2836 86.6418H49.625H49.6224Z" fill="white"/>
<path d="M92.383 68.0957L84.2425 81.5911L76.1368 68.0957H68.666L80.4378 87.661V98.4989H87.4736V87.7331L99.2881 68.0957H92.383Z" fill="white"/>
<path d="M53.3487 47.9312L54.1331 48.7156L51.0968 51.7519L50.3124 52.5337L49.5306 51.7519L39.181 41.4023L38.8555 41.0768V20.3828H44.2584V38.8409L53.3487 47.9312Z" fill="white"/>
<path d="M62.1613 15.3455L62.6283 15.6763V55.0364H56.8224V18.3071L48.7273 12.4505L44.6184 16.5595L43.8767 17.3012L43.0949 16.6021L40.5229 14.2969L39.6504 13.5151L40.4802 12.688L47.2545 5.91098L47.9162 5.25195L48.6793 5.79091L62.1613 15.3455Z" fill="white"/>
<path d="M88.3497 13.5151L87.4772 14.2969L84.9051 16.6021L84.1234 17.3012L83.3816 16.5595L79.2727 12.4505L71.1776 18.3071V55.0364H65.3691V15.6763L65.8387 15.3455L79.3207 5.79091L80.0838 5.25195L80.7455 5.91098L87.5199 12.688L88.3497 13.5151Z" fill="white"/>
<path d="M89.1449 20.3828V41.0768L88.822 41.4023L78.4724 51.7519L77.6879 52.5337L76.9035 51.7519L74.6516 49.5L73.8672 48.7156L74.6516 47.9312L83.7419 38.8409V20.3828H89.1449Z" fill="white"/>
<path d="M63.9988 10.1733C66.5805 10.1733 68.6733 8.08045 68.6733 5.49877C68.6733 2.91709 66.5805 0.824219 63.9988 0.824219C61.4171 0.824219 59.3242 2.91709 59.3242 5.49877C59.3242 8.08045 61.4171 10.1733 63.9988 10.1733Z" fill="white"/>
</svg>
